<?xml version="1.0" encoding="UTF-8"?>
<!-- Created with Inkscape (http://www.inkscape.org/) -->
<svg width="256" height="256" version="1.1" viewBox="0 0 68 68" xmlns="http://www.w3.org/2000/svg" xmlns:cc="http://creativecommons.org/ns#" xmlns:dc="http://purl.org/dc/elements/1.1/" xmlns:rdf="http://www.w3.org/1999/02/22-rdf-syntax-ns#">
 <metadata>
  <rdf:RDF>
   <cc:Work rdf:about="">
    <cc:license rdf:resource="http://creativecommons.org/licenses/by-sa/4.0/"/>
    <dc:creator>
     <cc:Agent>
      <dc:title>PJ568</dc:title>
     </cc:Agent>
    </dc:creator>
    <dc:rights>
     <cc:Agent>
      <dc:title>PJ568</dc:title>
     </cc:Agent>
    </dc:rights>
    <dc:contributor>
     <cc:Agent>
      <dc:title>PJ568</dc:title>
     </cc:Agent>
    </dc:contributor>
   </cc:Work>
   <cc:License rdf:about="http://creativecommons.org/licenses/by-sa/4.0/">
    <cc:permits rdf:resource="http://creativecommons.org/ns#Reproduction"/>
    <cc:permits rdf:resource="http://creativecommons.org/ns#Distribution"/>
    <cc:requires rdf:resource="http://creativecommons.org/ns#Notice"/>
    <cc:requires rdf:resource="http://creativecommons.org/ns#Attribution"/>
    <cc:permits rdf:resource="http://creativecommons.org/ns#DerivativeWorks"/>
    <cc:requires rdf:resource="http://creativecommons.org/ns#ShareAlike"/>
   </cc:License>
  </rdf:RDF>
 </metadata>
 <g transform="matrix(.5 0 0 .5 17 17)">
  <rect x="37" y="37" width="25" height="25" fill="#795548" stroke-width=".16"/>
  <path d="m47 47h7.1l-0.23 1.4h-7.1zm-0.46 3.4h7.1l-0.23 1.4h-7.1z" fill="#eee" stroke-width=".26" style="shape-inside:url(#rect1358);white-space:pre"/>
  <rect x="5.3" y="37" width="25" height="25" fill="#424242" stroke-width=".16"/>
  <path d="m17 58q-1.7 0-2.6-1.2-0.9-1.2-0.65-3.4 0.17-1.5 0.88-2.5 0.7-1 1.7-1.5-0.72-0.46-1.1-1.3t-0.29-1.9q0.19-1.7 1.2-2.7 1-1 2.6-1t2.4 1q0.86 1 0.69 2.7-0.11 1.2-0.74 2.1-0.63 0.88-1.5 1.3 0.84 0.51 1.3 1.5 0.5 1 0.34 2.3-0.25 2.2-1.4 3.4-1.1 1.2-2.8 1.2zm-0.19-12q-0.076 0.97 0.25 1.7 0.32 0.69 1.1 0.69t1.2-0.69q0.46-0.7 0.53-1.7 0.11-1.1-0.27-1.7-0.36-0.59-1-0.59-0.78 0-1.2 0.59-0.42 0.57-0.53 1.7zm-1.2 7.1q-0.17 1.6 0.27 2.3t1.2 0.7q0.78 0 1.4-0.7t0.74-2.3q0.15-1.3-0.25-2.1-0.38-0.82-1.2-0.82-0.88 0-1.4 0.8-0.55 0.8-0.7 2.2z" fill="#eee" stroke-width=".26" style="shape-inside:url(#rect1358);white-space:pre"/>
  <rect x="37" y="5.3" width="25" height="25" fill="#424242" stroke-width=".16"/>
  <path d="m52 14q-0.038-0.36-0.17-0.74-0.11-0.4-0.4-0.67t-0.78-0.27q-0.82 0-1.5 1.2-0.69 1.2-1.1 4.1 0.4-0.53 0.99-0.84 0.61-0.32 1.3-0.32 0.86 0 1.4 0.44t0.88 1.2q0.32 0.72 0.36 1.7 0.057 0.93-0.13 1.9-0.15 0.8-0.48 1.6-0.3 0.8-0.82 1.5-0.5 0.67-1.2 1.1t-1.6 0.4q-1 0-1.7-0.44-0.63-0.44-0.95-1.2-0.3-0.76-0.38-1.8-0.057-0.99 0.038-2.1t0.27-2.3q0.36-2.4 0.97-4.2 0.61-1.8 1.6-2.7 0.97-0.93 2.3-0.93 1.1 0 1.7 0.5t0.88 1.2q0.29 0.7 0.32 1.4zm-0.99 7.5q0.19-0.91 0.13-1.7-0.057-0.82-0.42-1.3-0.34-0.51-1.1-0.51-0.63 0-1.1 0.4-0.44 0.38-0.7 1-0.25 0.65-0.38 1.4-0.15 0.99-0.076 1.8 0.095 0.82 0.42 1.3 0.34 0.48 0.93 0.48 0.69 0 1.1-0.44t0.7-1.1q0.27-0.69 0.4-1.4z" fill="#eee" stroke-width=".26" style="shape-inside:url(#rect1358);white-space:pre"/>
  <rect x="5.3" y="5.3" width="25" height="25" fill="#424242" stroke-width=".16"/>
  <path d="m15 18 1.4-8.1h5.5l-0.36 1.7h-3.7l-0.8 4.3q0.32-0.3 0.74-0.5 0.44-0.19 0.93-0.19 1.5 0 2.1 1.4 0.59 1.4 0.27 3.7-0.3 2.4-1.4 3.7-1 1.4-2.9 1.4-1.6 0-2.3-1.1t-0.67-2.8l1.7-0.23q-0.019 0.95 0.32 1.7 0.34 0.69 1.1 0.69 0.93 0 1.4-0.82 0.51-0.84 0.76-2.4 0.23-1.4 0.11-2.2t-0.44-1.1-0.78-0.34q-0.59 0-1 0.42-0.44 0.42-0.67 1.1z" fill="#eee" stroke-width=".26" style="shape-inside:url(#rect1358);white-space:pre"/>
 </g>
</svg>
