<?xml version="1.0" encoding="UTF-8"?>
<!-- Created with Inkscape (http://www.inkscape.org/) -->
<svg width="256" height="256" version="1.1" viewBox="0 0 67.7 67.7" xmlns="http://www.w3.org/2000/svg" xmlns:cc="http://creativecommons.org/ns#" xmlns:dc="http://purl.org/dc/elements/1.1/" xmlns:rdf="http://www.w3.org/1999/02/22-rdf-syntax-ns#">
 <rect width="67.7" height="67.7" rx=".156" ry=".128" fill="#212121" stroke-width=".161"/>
 <metadata>
  <rdf:RDF>
   <cc:Work rdf:about="">
    <cc:license rdf:resource="http://creativecommons.org/licenses/by-sa/4.0/"/>
    <dc:creator>
     <cc:Agent>
      <dc:title>PJ568</dc:title>
     </cc:Agent>
    </dc:creator>
    <dc:rights>
     <cc:Agent>
      <dc:title>PJ568</dc:title>
     </cc:Agent>
    </dc:rights>
    <dc:contributor>
     <cc:Agent>
      <dc:title>PJ568</dc:title>
     </cc:Agent>
    </dc:contributor>
   </cc:Work>
   <cc:License rdf:about="http://creativecommons.org/licenses/by-sa/4.0/">
    <cc:permits rdf:resource="http://creativecommons.org/ns#Reproduction"/>
    <cc:permits rdf:resource="http://creativecommons.org/ns#Distribution"/>
    <cc:requires rdf:resource="http://creativecommons.org/ns#Notice"/>
    <cc:requires rdf:resource="http://creativecommons.org/ns#Attribution"/>
    <cc:permits rdf:resource="http://creativecommons.org/ns#DerivativeWorks"/>
    <cc:requires rdf:resource="http://creativecommons.org/ns#ShareAlike"/>
   </cc:License>
  </rdf:RDF>
 </metadata>
 <g>
  <rect x="36" y="36" width="27.5" height="27.5" fill="#8d6e63" stroke-width=".177"/>
  <g fill="#616161">
   <rect x="4.23" y="36" width="27.5" height="27.5" stroke-width=".177"/>
   <rect x="36" y="4.23" width="27.5" height="27.5" stroke-width=".177"/>
   <rect x="4.23" y="4.23" width="27.5" height="27.5" stroke-width=".177"/>
  </g>
 </g>
 <g>
  <rect x="37" y="37" width="25.4" height="25.4" fill="#795548" stroke-width=".163"/>
  <path d="m46.5 47.3h7.11l-0.229 1.43h-7.11zm-0.457 3.39h7.11l-0.229 1.43h-7.11z" fill="#eee" stroke-width=".265" style="shape-inside:url(#rect1358);white-space:pre"/>
  <rect x="5.29" y="37" width="25.4" height="25.4" fill="#424242" stroke-width=".163"/>
  <path d="m17.3 57.5q-1.73 0-2.63-1.18-0.895-1.2-0.648-3.39 0.171-1.5 0.876-2.53 0.705-1.05 1.71-1.52-0.724-0.457-1.12-1.3t-0.286-1.9q0.19-1.73 1.18-2.74 1.01-1.01 2.57-1.01t2.4 1.01q0.857 1.01 0.686 2.74-0.114 1.18-0.743 2.08-0.629 0.876-1.52 1.3 0.838 0.514 1.31 1.54 0.495 1.01 0.343 2.34-0.248 2.19-1.35 3.39-1.09 1.18-2.78 1.18zm-0.19-11.7q-0.0762 0.972 0.248 1.68 0.324 0.686 1.07 0.686t1.18-0.686q0.457-0.705 0.533-1.68 0.114-1.09-0.267-1.66-0.362-0.591-1.03-0.591-0.781 0-1.2 0.591-0.419 0.572-0.533 1.66zm-1.18 7.14q-0.171 1.56 0.267 2.27t1.24 0.705q0.781 0 1.35-0.705t0.743-2.27q0.152-1.31-0.248-2.13-0.381-0.819-1.22-0.819-0.876 0-1.43 0.8-0.552 0.8-0.705 2.15z" fill="#eee" stroke-width=".265" style="shape-inside:url(#rect1358);white-space:pre"/>
  <rect x="37" y="5.29" width="25.4" height="25.4" fill="#424242" stroke-width=".163"/>
  <path d="m52 13.6q-0.0381-0.362-0.171-0.743-0.114-0.4-0.4-0.667t-0.781-0.267q-0.819 0-1.52 1.22-0.686 1.2-1.12 4.1 0.4-0.533 0.991-0.838 0.61-0.324 1.31-0.324 0.857 0 1.43 0.438t0.876 1.18q0.324 0.724 0.362 1.66 0.0572 0.933-0.133 1.92-0.152 0.8-0.476 1.6-0.305 0.8-0.819 1.47-0.495 0.667-1.2 1.07t-1.64 0.4q-1.05 0-1.7-0.438-0.629-0.438-0.952-1.2-0.305-0.762-0.381-1.75-0.0572-0.991 0.0381-2.11t0.267-2.29q0.362-2.44 0.972-4.17 0.61-1.75 1.56-2.69 0.972-0.933 2.34-0.933 1.07 0 1.68 0.495t0.876 1.2q0.286 0.705 0.324 1.35zm-0.991 7.54q0.19-0.914 0.133-1.71-0.0572-0.819-0.419-1.31-0.343-0.514-1.07-0.514-0.629 0-1.07 0.4-0.438 0.381-0.705 1.05-0.248 0.648-0.381 1.45-0.152 0.991-0.0762 1.81 0.0952 0.819 0.419 1.31 0.343 0.476 0.933 0.476 0.686 0 1.12-0.438t0.705-1.1q0.267-0.686 0.4-1.41z" fill="#eee" stroke-width=".265" style="shape-inside:url(#rect1358);white-space:pre"/>
  <rect x="5.29" y="5.29" width="25.4" height="25.4" fill="#424242" stroke-width=".163"/>
  <path d="m15.1 18.4 1.45-8.06h5.47l-0.362 1.68h-3.73l-0.8 4.27q0.324-0.305 0.743-0.495 0.438-0.19 0.933-0.19 1.52 0 2.1 1.35 0.591 1.35 0.267 3.7-0.305 2.36-1.35 3.73-1.05 1.35-2.9 1.35-1.62 0-2.34-1.07t-0.667-2.76l1.71-0.229q-0.019 0.952 0.324 1.66 0.343 0.686 1.12 0.686 0.933 0 1.45-0.819 0.514-0.838 0.762-2.4 0.229-1.37 0.114-2.17t-0.438-1.14-0.781-0.343q-0.591 0-1.05 0.419-0.438 0.419-0.667 1.12z" fill="#eee" stroke-width=".265" style="shape-inside:url(#rect1358);white-space:pre"/>
 </g>
</svg>
