<?xml version="1.0" encoding="UTF-8" standalone="no"?>
<!-- Created with Inkscape (http://www.inkscape.org/) -->

<svg
   width="256"
   height="256"
   viewBox="0 0 67.733334 67.733333"
   version="1.1"
   id="svg5"
   inkscape:version="1.2.1 (9c6d41e410, 2022-07-14)"
   sodipodi:docname="568_Calc.svg"
   xmlns:inkscape="http://www.inkscape.org/namespaces/inkscape"
   xmlns:sodipodi="http://sodipodi.sourceforge.net/DTD/sodipodi-0.dtd"
   xmlns="http://www.w3.org/2000/svg"
   xmlns:svg="http://www.w3.org/2000/svg"
   xmlns:rdf="http://www.w3.org/1999/02/22-rdf-syntax-ns#"
   xmlns:cc="http://creativecommons.org/ns#"
   xmlns:dc="http://purl.org/dc/elements/1.1/">
  <sodipodi:namedview
     id="namedview7"
     pagecolor="#ffffff"
     bordercolor="#000000"
     borderopacity="0.25"
     inkscape:showpageshadow="2"
     inkscape:pageopacity="0.0"
     inkscape:pagecheckerboard="0"
     inkscape:deskcolor="#d1d1d1"
     inkscape:document-units="px"
     showgrid="false"
     inkscape:zoom="1.3340072"
     inkscape:cx="31.109278"
     inkscape:cy="100.07443"
     inkscape:window-width="1440"
     inkscape:window-height="878"
     inkscape:window-x="-6"
     inkscape:window-y="-6"
     inkscape:window-maximized="1"
     inkscape:current-layer="layer2" />
  <defs
     id="defs2">
    <rect
       x="22.5"
       y="25.5"
       width="163"
       height="87"
       id="rect1358" />
    <rect
       x="16.910268"
       y="167.49218"
       width="306.80057"
       height="247.61464"
       id="rect15590" />
    <rect
       x="8.0525085"
       y="5.2341305"
       width="240.77"
       height="148.56878"
       id="rect294" />
    <filter
       style="color-interpolation-filters:sRGB;"
       inkscape:label="Drop Shadow"
       id="filter15900"
       x="-0.10629922"
       y="-0.28346457"
       width="1.2125984"
       height="1.5669291">
      <feFlood
         flood-opacity="0.498039"
         flood-color="rgb(0,0,0)"
         result="flood"
         id="feFlood15890" />
      <feComposite
         in="flood"
         in2="SourceGraphic"
         operator="in"
         result="composite1"
         id="feComposite15892" />
      <feGaussianBlur
         in="composite1"
         stdDeviation="3"
         result="blur"
         id="feGaussianBlur15894" />
      <feOffset
         dx="0"
         dy="0"
         result="offset"
         id="feOffset15896" />
      <feComposite
         in="SourceGraphic"
         in2="offset"
         operator="over"
         result="composite2"
         id="feComposite15898" />
    </filter>
    <filter
       style="color-interpolation-filters:sRGB;"
       inkscape:label="Drop Shadow"
       id="filter15924"
       x="-0.024810789"
       y="-0.082203042"
       width="1.0496216"
       height="1.1644061">
      <feFlood
         flood-opacity="0.498039"
         flood-color="rgb(0,0,0)"
         result="flood"
         id="feFlood15914" />
      <feComposite
         in="flood"
         in2="SourceGraphic"
         operator="in"
         result="composite1"
         id="feComposite15916" />
      <feGaussianBlur
         in="composite1"
         stdDeviation="2"
         result="blur"
         id="feGaussianBlur15918" />
      <feOffset
         dx="0"
         dy="0"
         result="offset"
         id="feOffset15920" />
      <feComposite
         in="SourceGraphic"
         in2="offset"
         operator="over"
         result="composite2"
         id="feComposite15922" />
    </filter>
  </defs>
  <rect
     style="fill:#212121;fill-opacity:1;stroke-width:0.160501"
     id="rect344"
     width="67.73333"
     height="67.73333"
     x="0"
     y="0"
     rx="0.1558632"
     ry="0.12845317"
     inkscape:label="背景"
     sodipodi:insensitive="true" />
  <metadata
     id="metadata132">
    <rdf:RDF>
      <cc:License
         rdf:about="http://creativecommons.org/licenses/by-sa/4.0/">
        <cc:permits
           rdf:resource="http://creativecommons.org/ns#Reproduction" />
        <cc:permits
           rdf:resource="http://creativecommons.org/ns#Distribution" />
        <cc:requires
           rdf:resource="http://creativecommons.org/ns#Notice" />
        <cc:requires
           rdf:resource="http://creativecommons.org/ns#Attribution" />
        <cc:permits
           rdf:resource="http://creativecommons.org/ns#DerivativeWorks" />
        <cc:requires
           rdf:resource="http://creativecommons.org/ns#ShareAlike" />
      </cc:License>
      <cc:Work
         rdf:about="">
        <cc:license
           rdf:resource="http://creativecommons.org/licenses/by-sa/4.0/" />
        <dc:creator>
          <cc:Agent>
            <dc:title>PJ568</dc:title>
          </cc:Agent>
        </dc:creator>
        <dc:rights>
          <cc:Agent>
            <dc:title>PJ568</dc:title>
          </cc:Agent>
        </dc:rights>
        <dc:contributor>
          <cc:Agent>
            <dc:title>PJ568</dc:title>
          </cc:Agent>
        </dc:contributor>
      </cc:Work>
    </rdf:RDF>
  </metadata>
  <g
     inkscape:groupmode="layer"
     id="layer1"
     inkscape:label="按钮"
     sodipodi:insensitive="true">
    <rect
       style="fill:#8d6e63;fill-opacity:1;stroke-width:0.176929"
       id="rect263-4"
       width="27.516666"
       height="27.516666"
       x="35.983334"
       y="35.983334"
       inkscape:label="按钮_右下"
       sodipodi:insensitive="true" />
    <rect
       style="fill:#616161;fill-opacity:1;stroke-width:0.176929"
       id="rect263-0"
       width="27.516666"
       height="27.516666"
       x="4.2333331"
       y="35.983334"
       inkscape:label="按钮_左下"
       sodipodi:insensitive="true" />
    <rect
       style="fill:#616161;fill-opacity:1;stroke-width:0.176929"
       id="rect263-6"
       width="27.516666"
       height="27.516666"
       x="35.983334"
       y="4.2333331"
       inkscape:label="按钮_右上"
       sodipodi:insensitive="true" />
    <rect
       style="fill:#616161;fill-opacity:1;stroke-width:0.17693"
       id="rect263"
       width="27.516666"
       height="27.516666"
       x="4.2333331"
       y="4.2333331"
       inkscape:label="按钮_左上"
       sodipodi:insensitive="true" />
  </g>
  <g
     inkscape:groupmode="layer"
     id="layer2"
     inkscape:label="内容"
     sodipodi:insensitive="true">
    <rect
       style="fill:#795548;fill-opacity:1;stroke-width:0.16332"
       id="rect263-8-4"
       width="25.4"
       height="25.4"
       x="37.041668"
       y="37.041668"
       inkscape:label="内容_右下"
       sodipodi:insensitive="true" />
    <path
       d="m 46.531742,47.331842 h 7.10565 l -0.2286,1.42875 h -7.10565 z m -0.4572,3.3909 h 7.10565 l -0.2286,1.42875 h -7.10565 z"
       id="path1368"
       inkscape:label="="
       style="font-size:72px;font-family:'Smiley Sans';-inkscape-font-specification:'Smiley Sans';white-space:pre;shape-inside:url(#rect1358);display:inline;fill:#eeeeee;stroke-width:0.264583;fill-opacity:1"
       sodipodi:insensitive="true" />
    <rect
       style="fill:#424242;fill-opacity:1;stroke-width:0.16332"
       id="rect263-8-1"
       width="25.4"
       height="25.4"
       x="5.2916665"
       y="37.041668"
       inkscape:label="内容_左下"
       sodipodi:insensitive="true" />
    <path
       d="m 17.270756,57.533116 q -1.73355,0 -2.6289,-1.1811 -0.89535,-1.20015 -0.6477,-3.3909 0.17145,-1.50495 0.8763,-2.53365 0.70485,-1.047749 1.7145,-1.523999 -0.7239,-0.4572 -1.12395,-1.2954 -0.40005,-0.8382 -0.28575,-1.905 0.1905,-1.73355 1.1811,-2.7432 1.00965,-1.00965 2.57175,-1.00965 1.5621,0 2.4003,1.00965 0.85725,1.00965 0.6858,2.7432 -0.1143,1.1811 -0.74295,2.07645 -0.62865,0.8763 -1.524,1.2954 0.8382,0.51435 1.31445,1.543049 0.4953,1.00965 0.3429,2.34315 -0.24765,2.19075 -1.35255,3.3909 -1.08585,1.1811 -2.7813,1.1811 z m -0.1905,-11.734799 q -0.0762,0.97155 0.24765,1.6764 0.32385,0.6858 1.0668,0.6858 0.74295,0 1.1811,-0.6858 0.4572,-0.70485 0.5334,-1.6764 0.1143,-1.08585 -0.2667,-1.65735 -0.36195,-0.59055 -1.0287,-0.59055 -0.78105,0 -1.20015,0.59055 -0.4191,0.5715 -0.5334,1.65735 z m -1.1811,7.143749 q -0.17145,1.5621 0.2667,2.26695 0.43815,0.70485 1.23825,0.70485 0.78105,0 1.35255,-0.70485 0.5715,-0.70485 0.74295,-2.26695 0.1524,-1.31445 -0.24765,-2.1336 -0.381,-0.819149 -1.2192,-0.819149 -0.8763,0 -1.42875,0.800099 -0.55245,0.8001 -0.70485,2.15265 z"
       id="path1366"
       inkscape:label="8"
       style="font-size:72px;font-family:'Smiley Sans';-inkscape-font-specification:'Smiley Sans';white-space:pre;shape-inside:url(#rect1358);display:inline;fill:#eeeeee;stroke-width:0.264583;fill-opacity:1"
       sodipodi:insensitive="true" />
    <rect
       style="fill:#424242;fill-opacity:1;stroke-width:0.16332"
       id="rect263-8-5"
       width="25.4"
       height="25.4"
       x="37.041668"
       y="5.2916665"
       inkscape:label="内容_右上"
       sodipodi:insensitive="true" />
    <path
       d="m 52.047775,13.572067 q -0.0381,-0.36195 -0.17145,-0.74295 -0.1143,-0.40005 -0.40005,-0.66675 -0.28575,-0.2667 -0.78105,-0.2667 -0.81915,0 -1.524,1.2192 -0.6858,1.20015 -1.12395,4.09575 0.40005,-0.5334 0.9906,-0.8382 0.6096,-0.32385 1.31445,-0.32385 0.85725,0 1.42875,0.43815 0.5715,0.43815 0.8763,1.1811 0.32385,0.7239 0.36195,1.65735 0.05715,0.93345 -0.13335,1.92405 -0.1524,0.8001 -0.47625,1.6002 -0.3048,0.8001 -0.81915,1.46685 -0.4953,0.66675 -1.20015,1.0668 -0.70485,0.40005 -1.6383,0.40005 -1.04775,0 -1.69545,-0.43815 -0.62865,-0.43815 -0.9525,-1.20015 -0.3048,-0.762 -0.381,-1.7526 -0.05715,-0.9906 0.0381,-2.11455 0.09525,-1.12395 0.2667,-2.286 0.36195,-2.4384 0.97155,-4.17195 0.6096,-1.7526 1.5621,-2.68605 0.97155,-0.93345 2.34315,-0.93345 1.0668,0 1.6764,0.4953 0.6096,0.4953 0.8763,1.20015 0.28575,0.70485 0.32385,1.35255 z m -0.9906,7.5438 q 0.1905,-0.9144 0.13335,-1.7145 -0.05715,-0.81915 -0.4191,-1.31445 -0.3429,-0.51435 -1.0668,-0.51435 -0.62865,0 -1.0668,0.40005 -0.43815,0.381 -0.70485,1.04775 -0.24765,0.6477 -0.381,1.4478 -0.1524,0.9906 -0.0762,1.80975 0.09525,0.81915 0.4191,1.31445 0.3429,0.47625 0.93345,0.47625 0.6858,0 1.12395,-0.43815 0.43815,-0.43815 0.70485,-1.1049 0.2667,-0.6858 0.40005,-1.4097 z"
       id="path1364"
       inkscape:label="6"
       style="font-size:72px;font-family:'Smiley Sans';-inkscape-font-specification:'Smiley Sans';white-space:pre;shape-inside:url(#rect1358);display:inline;fill:#eeeeee;stroke-width:0.264583;fill-opacity:1"
       sodipodi:insensitive="true" />
    <rect
       style="fill:#424242;fill-opacity:1;stroke-width:0.16332"
       id="rect263-8"
       width="25.4"
       height="25.4"
       x="5.2916665"
       y="5.2916665"
       inkscape:label="内容_左上"
       sodipodi:insensitive="true" />
    <path
       d="m 15.136232,18.353617 1.4478,-8.05815 h 5.46735 l -0.36195,1.6764 h -3.7338 l -0.8001,4.2672 q 0.32385,-0.3048 0.74295,-0.4953 0.43815,-0.1905 0.93345,-0.1905 1.524,0 2.0955,1.35255 0.59055,1.35255 0.2667,3.6957 -0.3048,2.3622 -1.35255,3.7338 -1.04775,1.35255 -2.8956,1.35255 -1.61925,0 -2.34315,-1.0668 -0.7239,-1.0668 -0.66675,-2.76225 l 1.7145,-0.2286 q -0.01905,0.9525 0.32385,1.65735 0.3429,0.6858 1.12395,0.6858 0.93345,0 1.4478,-0.81915 0.51435,-0.8382 0.762,-2.4003 0.2286,-1.3716 0.1143,-2.1717 -0.1143,-0.8001 -0.43815,-1.143 -0.32385,-0.3429 -0.78105,-0.3429 -0.59055,0 -1.04775,0.4191 -0.43815,0.4191 -0.66675,1.12395 z"
       id="path1362"
       inkscape:label="5"
       style="font-size:72px;font-family:'Smiley Sans';-inkscape-font-specification:'Smiley Sans';white-space:pre;shape-inside:url(#rect1358);fill:#eeeeee;stroke-width:0.264583;fill-opacity:1"
       sodipodi:insensitive="true" />
  </g>
</svg>
